<?xml version="1.0" encoding="UTF-8"?>
<svg id="Calque_1" xmlns="http://www.w3.org/2000/svg" version="1.1" viewBox="0 0 504 360">
  <!-- Generator: Adobe Illustrator 29.1.0, SVG Export Plug-In . SVG Version: 2.1.0 Build 142)  -->
  <defs>
    <style>
      .st0 {
        fill: none;
      }

      .st1 {
        fill: #fff;
      }
    </style>
  </defs>
  <path class="st0" d="M252.02,150.589c-13.674,0-22.275,10.873-22.275,29.086,0,18.064,8.377,29.736,22.275,29.736,13.407,0,22.338-11.302,22.338-29.494,0-17.816-8.503-29.328-22.338-29.328ZM251.41,194.318c-.965.82-4.667,3.998-4.667,3.998-.287.247-.711.247-.998,0l-4.732-4.068c-.18-.155-.284-.381-.284-.618v-7.144c0-.156.072-.304.194-.402l4.655-3.722c.105-.082.207-.057.258-.031.081.038.166.132.166.282v6.694c0,.287.116.432.217.532h0c.017.015,4.134,3.268,5.185,4.103.128.102.131.27.006.376ZM263.277,193.631c0,.237-.104.463-.284.618l-4.731,4.068c-.287.247-.712.247-.999,0,0,0-3.704-3.181-4.666-4-.117-.099-.114-.278.006-.373,1.052-.835,5.313-4.239,5.313-4.239.059-.047.093-.121.093-.196,0-.074-.034-.144-.091-.191l-16.918-13.861c-.178-.145-.281-.363-.281-.592v-8.587c0-.237.104-.463.284-.618l4.734-4.069c.287-.247.712-.247.999,0,0,0,3.713,3.188,4.67,4.002.122.103.119.268-.006.367-.979.778-4.77,3.805-4.77,3.805-.188.151-.298.38-.3.629-.002.249.103.481.29.635l10.987,9.112h-.002l5.384,4.307c.182.146.288.365.288.598v8.585ZM263.28,173.422c0,.156-.072.304-.194.402l-4.655,3.722c-.106.082-.208.057-.258.031-.081-.038-.166-.132-.166-.282v-6.694c0-.287-.117-.432-.217-.532-.017-.016-4.134-3.269-5.185-4.104-.128-.102-.131-.27-.006-.376.965-.82,4.667-3.998,4.667-3.998.287-.247.711-.247.998,0h0s4.732,4.069,4.732,4.069c.18.155.284.381.284.618v7.144Z"/>
  <path class="st1" d="M251.999,148.8c-18.099,0-29.489,12.796-29.489,31.117,0,18.126,11.739,31.283,29.489,31.283s29.492-13.19,29.492-31.362c0-18.275-11.516-31.038-29.492-31.038ZM252.02,209.411c-13.898,0-22.275-11.672-22.275-29.736,0-18.213,8.601-29.086,22.275-29.086,13.835,0,22.338,11.512,22.338,29.328,0,18.192-8.931,29.494-22.338,29.494Z"/>
  <path class="st1" d="M258.264,161.592h0c-.287-.248-.711-.248-.998-.001,0,0-3.702,3.178-4.667,3.998-.125.106-.122.274.006.376,1.051.835,5.168,4.088,5.185,4.104.1.1.217.245.217.532v6.694c0,.15.085.244.166.282.05.026.152.051.258-.031l4.655-3.722c.122-.098.194-.246.194-.402v-7.144c0-.237-.104-.463-.284-.618l-4.732-4.068Z"/>
  <path class="st1" d="M246.218,189.838h0c-.101-.099-.217-.244-.217-.531v-6.694c0-.15-.085-.244-.166-.282-.051-.026-.153-.051-.258.031l-4.655,3.722c-.122.098-.194.246-.194.402v7.144c0,.237.104.463.284.618l4.732,4.068c.287.247.711.247.998,0,0,0,3.702-3.178,4.667-3.998.125-.106.122-.274-.006-.376-1.051-.835-5.168-4.088-5.185-4.104Z"/>
  <path class="st1" d="M257.605,180.141h.002l-10.987-9.112c-.187-.154-.292-.386-.29-.635.002-.249.112-.478.3-.629,0,0,3.791-3.027,4.77-3.805.125-.099.128-.264.006-.367-.957-.814-4.67-4.002-4.67-4.002-.287-.247-.712-.247-.999,0l-4.734,4.069c-.18.155-.284.381-.284.618v8.587c0,.229.103.447.281.592l16.918,13.861c.057.047.091.117.091.191,0,.075-.034.149-.093.196,0,0-4.261,3.404-5.313,4.239-.12.095-.123.274-.006.373.962.819,4.666,4,4.666,4,.287.247.712.247.999,0l4.731-4.068c.18-.155.284-.381.284-.618v-8.585c0-.233-.106-.452-.288-.598l-5.384-4.307Z"/>
</svg>